<svg xmlns="http://www.w3.org/2000/svg" width="956" height="296" viewBox="0 0 956 296" font-family="'JetBrains Mono','SFMono-Regular',Consolas,'Liberation Mono',Menlo,monospace">
  <rect x="0.5" y="0.5" width="955" height="295" rx="12" fill="#11151c" stroke="#262c36"/>
  <path d="M12 0.5 H944 A11.5 11.5 0 0 1 955.5 12 V40 H0.5 V12 A11.5 11.5 0 0 1 12 0.5 Z" fill="#161b22"/>
  <line x1="0.5" y1="40" x2="955.5" y2="40" stroke="#262c36"/>
  <circle cx="22" cy="20" r="6" fill="#ff5f57"/>
  <circle cx="42" cy="20" r="6" fill="#febc2e"/>
  <circle cx="62" cy="20" r="6" fill="#28c840"/>
  <text x="478.0" y="25" text-anchor="middle" font-size="13" fill="#7d8590">hashim@github: ~</text>
  <clipPath id="typing"><rect x="30" y="56" height="26" width="0">
    <animate attributeName="width" from="0" to="307.2" dur="1.4s" fill="freeze" calcMode="discrete" values="0;10;20;31;41;51;61;72;82;92;102;113;123;133;143;154;164;174;184;195;205;215;225;236;246;256;266;276;287;297;307"/>
  </rect></clipPath>
  <g clip-path="url(#typing)" font-size="16">
    <text x="32" y="75" fill="#e5484d">$</text>
    <text x="52" y="75" fill="#e6edf3">./contributions.sh --last-year</text>
  </g>
  <rect x="344.0" y="61" width="9" height="18" fill="#e5484d">
    <animate attributeName="opacity" values="0;0;1;1;0" keyTimes="0;0.5;0.5;0.99;1" dur="1s" begin="1.4s" repeatCount="indefinite"/>
  </rect>
  <g opacity="0">
    <animate attributeName="opacity" from="0" to="1" begin="1.2s" dur="0.8s" fill="freeze"/>
        <rect x="72" y="112" width="13" height="13" rx="3" fill="#1b2029"><title>0 on 2025-09-28</title></rect>
    <rect x="72" y="128" width="13" height="13" rx="3" fill="#1b2029"><title>0 on 2025-09-29</title></rect>
    <rect x="72" y="144" width="13" height="13" rx="3" fill="#1b2029"><title>0 on 2025-09-30</title></rect>
    <rect x="72" y="160" width="13" height="13" rx="3" fill="#1b2029"><title>0 on 2025-10-01</title></rect>
    <rect x="72" y="176" width="13" height="13" rx="3" fill="#7c1f29"><title>3 on 2025-10-02</title></rect>
    <rect x="72" y="192" width="13" height="13" rx="3" fill="#1b2029"><title>0 on 2025-10-03</title></rect>
    <rect x="72" y="208" width="13" height="13" rx="3" fill="#1b2029"><title>0 on 2025-10-04</title></rect>
    <text x="88" y="100" font-size="12" fill="#7d8590">Oct</text>
    <rect x="88" y="112" width="13" height="13" rx="3" fill="#1b2029"><title>0 on 2025-10-05</title></rect>
    <rect x="88" y="128" width="13" height="13" rx="3" fill="#1b2029"><title>0 on 2025-10-06</title></rect>
    <rect x="88" y="144" width="13" height="13" rx="3" fill="#4a1a20"><title>1 on 2025-10-07</title></rect>
    <rect x="88" y="160" width="13" height="13" rx="3" fill="#1b2029"><title>0 on 2025-10-08</title></rect>
    <rect x="88" y="176" width="13" height="13" rx="3" fill="#1b2029"><title>0 on 2025-10-09</title></rect>
    <rect x="88" y="192" width="13" height="13" rx="3" fill="#1b2029"><title>0 on 2025-10-10</title></rect>
    <rect x="88" y="208" width="13" height="13" rx="3" fill="#b3242f"><title>5 on 2025-10-11</title></rect>
    <rect x="104" y="112" width="13" height="13" rx="3" fill="#b3242f"><title>4 on 2025-10-12</title></rect>
    <rect x="104" y="128" width="13" height="13" rx="3" fill="#1b2029"><title>0 on 2025-10-13</title></rect>
    <rect x="104" y="144" width="13" height="13" rx="3" fill="#1b2029"><title>0 on 2025-10-14</title></rect>
    <rect x="104" y="160" width="13" height="13" rx="3" fill="#1b2029"><title>0 on 2025-10-15</title></rect>
    <rect x="104" y="176" width="13" height="13" rx="3" fill="#1b2029"><title>0 on 2025-10-16</title></rect>
    <rect x="104" y="192" width="13" height="13" rx="3" fill="#4a1a20"><title>1 on 2025-10-17</title></rect>
    <rect x="104" y="208" width="13" height="13" rx="3" fill="#1b2029"><title>0 on 2025-10-18</title></rect>
    <rect x="120" y="112" width="13" height="13" rx="3" fill="#1b2029"><title>0 on 2025-10-19</title></rect>
    <rect x="120" y="128" width="13" height="13" rx="3" fill="#1b2029"><title>0 on 2025-10-20</title></rect>
    <rect x="120" y="144" width="13" height="13" rx="3" fill="#1b2029"><title>0 on 2025-10-21</title></rect>
    <rect x="120" y="160" width="13" height="13" rx="3" fill="#1b2029"><title>0 on 2025-10-22</title></rect>
    <rect x="120" y="176" width="13" height="13" rx="3" fill="#1b2029"><title>0 on 2025-10-23</title></rect>
    <rect x="120" y="192" width="13" height="13" rx="3" fill="#1b2029"><title>0 on 2025-10-24</title></rect>
    <rect x="120" y="208" width="13" height="13" rx="3" fill="#1b2029"><title>0 on 2025-10-25</title></rect>
    <rect x="136" y="112" width="13" height="13" rx="3" fill="#1b2029"><title>0 on 2025-10-26</title></rect>
    <rect x="136" y="128" width="13" height="13" rx="3" fill="#ef4b53"><title>11 on 2025-10-27</title></rect>
    <rect x="136" y="144" width="13" height="13" rx="3" fill="#1b2029"><title>0 on 2025-10-28</title></rect>
    <rect x="136" y="160" width="13" height="13" rx="3" fill="#1b2029"><title>0 on 2025-10-29</title></rect>
    <rect x="136" y="176" width="13" height="13" rx="3" fill="#1b2029"><title>0 on 2025-10-30</title></rect>
    <rect x="136" y="192" width="13" height="13" rx="3" fill="#1b2029"><title>0 on 2025-10-31</title></rect>
    <rect x="136" y="208" width="13" height="13" rx="3" fill="#1b2029"><title>0 on 2025-11-01</title></rect>
    <text x="152" y="100" font-size="12" fill="#7d8590">Nov</text>
    <rect x="152" y="112" width="13" height="13" rx="3" fill="#1b2029"><title>0 on 2025-11-02</title></rect>
    <rect x="152" y="128" width="13" height="13" rx="3" fill="#1b2029"><title>0 on 2025-11-03</title></rect>
    <rect x="152" y="144" width="13" height="13" rx="3" fill="#1b2029"><title>0 on 2025-11-04</title></rect>
    <rect x="152" y="160" width="13" height="13" rx="3" fill="#1b2029"><title>0 on 2025-11-05</title></rect>
    <rect x="152" y="176" width="13" height="13" rx="3" fill="#1b2029"><title>0 on 2025-11-06</title></rect>
    <rect x="152" y="192" width="13" height="13" rx="3" fill="#1b2029"><title>0 on 2025-11-07</title></rect>
    <rect x="152" y="208" width="13" height="13" rx="3" fill="#1b2029"><title>0 on 2025-11-08</title></rect>
    <rect x="168" y="112" width="13" height="13" rx="3" fill="#1b2029"><title>0 on 2025-11-09</title></rect>
    <rect x="168" y="128" width="13" height="13" rx="3" fill="#1b2029"><title>0 on 2025-11-10</title></rect>
    <rect x="168" y="144" width="13" height="13" rx="3" fill="#1b2029"><title>0 on 2025-11-11</title></rect>
    <rect x="168" y="160" width="13" height="13" rx="3" fill="#1b2029"><title>0 on 2025-11-12</title></rect>
    <rect x="168" y="176" width="13" height="13" rx="3" fill="#1b2029"><title>0 on 2025-11-13</title></rect>
    <rect x="168" y="192" width="13" height="13" rx="3" fill="#1b2029"><title>0 on 2025-11-14</title></rect>
    <rect x="168" y="208" width="13" height="13" rx="3" fill="#1b2029"><title>0 on 2025-11-15</title></rect>
    <rect x="184" y="112" width="13" height="13" rx="3" fill="#4a1a20"><title>1 on 2025-11-16</title></rect>
    <rect x="184" y="128" width="13" height="13" rx="3" fill="#1b2029"><title>0 on 2025-11-17</title></rect>
    <rect x="184" y="144" width="13" height="13" rx="3" fill="#1b2029"><title>0 on 2025-11-18</title></rect>
    <rect x="184" y="160" width="13" height="13" rx="3" fill="#1b2029"><title>0 on 2025-11-19</title></rect>
    <rect x="184" y="176" width="13" height="13" rx="3" fill="#1b2029"><title>0 on 2025-11-20</title></rect>
    <rect x="184" y="192" width="13" height="13" rx="3" fill="#1b2029"><title>0 on 2025-11-21</title></rect>
    <rect x="184" y="208" width="13" height="13" rx="3" fill="#1b2029"><title>0 on 2025-11-22</title></rect>
    <rect x="200" y="112" width="13" height="13" rx="3" fill="#1b2029"><title>0 on 2025-11-23</title></rect>
    <rect x="200" y="128" width="13" height="13" rx="3" fill="#1b2029"><title>0 on 2025-11-24</title></rect>
    <rect x="200" y="144" width="13" height="13" rx="3" fill="#4a1a20"><title>1 on 2025-11-25</title></rect>
    <rect x="200" y="160" width="13" height="13" rx="3" fill="#ef4b53"><title>17 on 2025-11-26</title></rect>
    <rect x="200" y="176" width="13" height="13" rx="3" fill="#1b2029"><title>0 on 2025-11-27</title></rect>
    <rect x="200" y="192" width="13" height="13" rx="3" fill="#1b2029"><title>0 on 2025-11-28</title></rect>
    <rect x="200" y="208" width="13" height="13" rx="3" fill="#4a1a20"><title>1 on 2025-11-29</title></rect>
    <rect x="216" y="112" width="13" height="13" rx="3" fill="#1b2029"><title>0 on 2025-11-30</title></rect>
    <rect x="216" y="128" width="13" height="13" rx="3" fill="#1b2029"><title>0 on 2025-12-01</title></rect>
    <rect x="216" y="144" width="13" height="13" rx="3" fill="#1b2029"><title>0 on 2025-12-02</title></rect>
    <rect x="216" y="160" width="13" height="13" rx="3" fill="#1b2029"><title>0 on 2025-12-03</title></rect>
    <rect x="216" y="176" width="13" height="13" rx="3" fill="#1b2029"><title>0 on 2025-12-04</title></rect>
    <rect x="216" y="192" width="13" height="13" rx="3" fill="#1b2029"><title>0 on 2025-12-05</title></rect>
    <rect x="216" y="208" width="13" height="13" rx="3" fill="#1b2029"><title>0 on 2025-12-06</title></rect>
    <text x="232" y="100" font-size="12" fill="#7d8590">Dec</text>
    <rect x="232" y="112" width="13" height="13" rx="3" fill="#1b2029"><title>0 on 2025-12-07</title></rect>
    <rect x="232" y="128" width="13" height="13" rx="3" fill="#1b2029"><title>0 on 2025-12-08</title></rect>
    <rect x="232" y="144" width="13" height="13" rx="3" fill="#7c1f29"><title>3 on 2025-12-09</title></rect>
    <rect x="232" y="160" width="13" height="13" rx="3" fill="#1b2029"><title>0 on 2025-12-10</title></rect>
    <rect x="232" y="176" width="13" height="13" rx="3" fill="#1b2029"><title>0 on 2025-12-11</title></rect>
    <rect x="232" y="192" width="13" height="13" rx="3" fill="#1b2029"><title>0 on 2025-12-12</title></rect>
    <rect x="232" y="208" width="13" height="13" rx="3" fill="#1b2029"><title>0 on 2025-12-13</title></rect>
    <rect x="248" y="112" width="13" height="13" rx="3" fill="#1b2029"><title>0 on 2025-12-14</title></rect>
    <rect x="248" y="128" width="13" height="13" rx="3" fill="#1b2029"><title>0 on 2025-12-15</title></rect>
    <rect x="248" y="144" width="13" height="13" rx="3" fill="#1b2029"><title>0 on 2025-12-16</title></rect>
    <rect x="248" y="160" width="13" height="13" rx="3" fill="#1b2029"><title>0 on 2025-12-17</title></rect>
    <rect x="248" y="176" width="13" height="13" rx="3" fill="#1b2029"><title>0 on 2025-12-18</title></rect>
    <rect x="248" y="192" width="13" height="13" rx="3" fill="#1b2029"><title>0 on 2025-12-19</title></rect>
    <rect x="248" y="208" width="13" height="13" rx="3" fill="#1b2029"><title>0 on 2025-12-20</title></rect>
    <rect x="264" y="112" width="13" height="13" rx="3" fill="#1b2029"><title>0 on 2025-12-21</title></rect>
    <rect x="264" y="128" width="13" height="13" rx="3" fill="#1b2029"><title>0 on 2025-12-22</title></rect>
    <rect x="264" y="144" width="13" height="13" rx="3" fill="#1b2029"><title>0 on 2025-12-23</title></rect>
    <rect x="264" y="160" width="13" height="13" rx="3" fill="#1b2029"><title>0 on 2025-12-24</title></rect>
    <rect x="264" y="176" width="13" height="13" rx="3" fill="#1b2029"><title>0 on 2025-12-25</title></rect>
    <rect x="264" y="192" width="13" height="13" rx="3" fill="#1b2029"><title>0 on 2025-12-26</title></rect>
    <rect x="264" y="208" width="13" height="13" rx="3" fill="#1b2029"><title>0 on 2025-12-27</title></rect>
    <rect x="280" y="112" width="13" height="13" rx="3" fill="#1b2029"><title>0 on 2025-12-28</title></rect>
    <rect x="280" y="128" width="13" height="13" rx="3" fill="#1b2029"><title>0 on 2025-12-29</title></rect>
    <rect x="280" y="144" width="13" height="13" rx="3" fill="#1b2029"><title>0 on 2025-12-30</title></rect>
    <rect x="280" y="160" width="13" height="13" rx="3" fill="#1b2029"><title>0 on 2025-12-31</title></rect>
    <rect x="280" y="176" width="13" height="13" rx="3" fill="#1b2029"><title>0 on 2026-01-01</title></rect>
    <rect x="280" y="192" width="13" height="13" rx="3" fill="#1b2029"><title>0 on 2026-01-02</title></rect>
    <rect x="280" y="208" width="13" height="13" rx="3" fill="#1b2029"><title>0 on 2026-01-03</title></rect>
    <text x="296" y="100" font-size="12" fill="#7d8590">Jan</text>
    <rect x="296" y="112" width="13" height="13" rx="3" fill="#1b2029"><title>0 on 2026-01-04</title></rect>
    <rect x="296" y="128" width="13" height="13" rx="3" fill="#1b2029"><title>0 on 2026-01-05</title></rect>
    <rect x="296" y="144" width="13" height="13" rx="3" fill="#1b2029"><title>0 on 2026-01-06</title></rect>
    <rect x="296" y="160" width="13" height="13" rx="3" fill="#1b2029"><title>0 on 2026-01-07</title></rect>
    <rect x="296" y="176" width="13" height="13" rx="3" fill="#1b2029"><title>0 on 2026-01-08</title></rect>
    <rect x="296" y="192" width="13" height="13" rx="3" fill="#1b2029"><title>0 on 2026-01-09</title></rect>
    <rect x="296" y="208" width="13" height="13" rx="3" fill="#1b2029"><title>0 on 2026-01-10</title></rect>
    <rect x="312" y="112" width="13" height="13" rx="3" fill="#1b2029"><title>0 on 2026-01-11</title></rect>
    <rect x="312" y="128" width="13" height="13" rx="3" fill="#1b2029"><title>0 on 2026-01-12</title></rect>
    <rect x="312" y="144" width="13" height="13" rx="3" fill="#1b2029"><title>0 on 2026-01-13</title></rect>
    <rect x="312" y="160" width="13" height="13" rx="3" fill="#1b2029"><title>0 on 2026-01-14</title></rect>
    <rect x="312" y="176" width="13" height="13" rx="3" fill="#1b2029"><title>0 on 2026-01-15</title></rect>
    <rect x="312" y="192" width="13" height="13" rx="3" fill="#1b2029"><title>0 on 2026-01-16</title></rect>
    <rect x="312" y="208" width="13" height="13" rx="3" fill="#1b2029"><title>0 on 2026-01-17</title></rect>
    <rect x="328" y="112" width="13" height="13" rx="3" fill="#1b2029"><title>0 on 2026-01-18</title></rect>
    <rect x="328" y="128" width="13" height="13" rx="3" fill="#1b2029"><title>0 on 2026-01-19</title></rect>
    <rect x="328" y="144" width="13" height="13" rx="3" fill="#1b2029"><title>0 on 2026-01-20</title></rect>
    <rect x="328" y="160" width="13" height="13" rx="3" fill="#1b2029"><title>0 on 2026-01-21</title></rect>
    <rect x="328" y="176" width="13" height="13" rx="3" fill="#1b2029"><title>0 on 2026-01-22</title></rect>
    <rect x="328" y="192" width="13" height="13" rx="3" fill="#1b2029"><title>0 on 2026-01-23</title></rect>
    <rect x="328" y="208" width="13" height="13" rx="3" fill="#1b2029"><title>0 on 2026-01-24</title></rect>
    <rect x="344" y="112" width="13" height="13" rx="3" fill="#1b2029"><title>0 on 2026-01-25</title></rect>
    <rect x="344" y="128" width="13" height="13" rx="3" fill="#1b2029"><title>0 on 2026-01-26</title></rect>
    <rect x="344" y="144" width="13" height="13" rx="3" fill="#1b2029"><title>0 on 2026-01-27</title></rect>
    <rect x="344" y="160" width="13" height="13" rx="3" fill="#1b2029"><title>0 on 2026-01-28</title></rect>
    <rect x="344" y="176" width="13" height="13" rx="3" fill="#1b2029"><title>0 on 2026-01-29</title></rect>
    <rect x="344" y="192" width="13" height="13" rx="3" fill="#1b2029"><title>0 on 2026-01-30</title></rect>
    <rect x="344" y="208" width="13" height="13" rx="3" fill="#1b2029"><title>0 on 2026-01-31</title></rect>
    <text x="360" y="100" font-size="12" fill="#7d8590">Feb</text>
    <rect x="360" y="112" width="13" height="13" rx="3" fill="#1b2029"><title>0 on 2026-02-01</title></rect>
    <rect x="360" y="128" width="13" height="13" rx="3" fill="#1b2029"><title>0 on 2026-02-02</title></rect>
    <rect x="360" y="144" width="13" height="13" rx="3" fill="#1b2029"><title>0 on 2026-02-03</title></rect>
    <rect x="360" y="160" width="13" height="13" rx="3" fill="#1b2029"><title>0 on 2026-02-04</title></rect>
    <rect x="360" y="176" width="13" height="13" rx="3" fill="#1b2029"><title>0 on 2026-02-05</title></rect>
    <rect x="360" y="192" width="13" height="13" rx="3" fill="#1b2029"><title>0 on 2026-02-06</title></rect>
    <rect x="360" y="208" width="13" height="13" rx="3" fill="#1b2029"><title>0 on 2026-02-07</title></rect>
    <rect x="376" y="112" width="13" height="13" rx="3" fill="#1b2029"><title>0 on 2026-02-08</title></rect>
    <rect x="376" y="128" width="13" height="13" rx="3" fill="#1b2029"><title>0 on 2026-02-09</title></rect>
    <rect x="376" y="144" width="13" height="13" rx="3" fill="#1b2029"><title>0 on 2026-02-10</title></rect>
    <rect x="376" y="160" width="13" height="13" rx="3" fill="#1b2029"><title>0 on 2026-02-11</title></rect>
    <rect x="376" y="176" width="13" height="13" rx="3" fill="#1b2029"><title>0 on 2026-02-12</title></rect>
    <rect x="376" y="192" width="13" height="13" rx="3" fill="#1b2029"><title>0 on 2026-02-13</title></rect>
    <rect x="376" y="208" width="13" height="13" rx="3" fill="#1b2029"><title>0 on 2026-02-14</title></rect>
    <rect x="392" y="112" width="13" height="13" rx="3" fill="#1b2029"><title>0 on 2026-02-15</title></rect>
    <rect x="392" y="128" width="13" height="13" rx="3" fill="#1b2029"><title>0 on 2026-02-16</title></rect>
    <rect x="392" y="144" width="13" height="13" rx="3" fill="#1b2029"><title>0 on 2026-02-17</title></rect>
    <rect x="392" y="160" width="13" height="13" rx="3" fill="#1b2029"><title>0 on 2026-02-18</title></rect>
    <rect x="392" y="176" width="13" height="13" rx="3" fill="#1b2029"><title>0 on 2026-02-19</title></rect>
    <rect x="392" y="192" width="13" height="13" rx="3" fill="#1b2029"><title>0 on 2026-02-20</title></rect>
    <rect x="392" y="208" width="13" height="13" rx="3" fill="#1b2029"><title>0 on 2026-02-21</title></rect>
    <rect x="408" y="112" width="13" height="13" rx="3" fill="#1b2029"><title>0 on 2026-02-22</title></rect>
    <rect x="408" y="128" width="13" height="13" rx="3" fill="#1b2029"><title>0 on 2026-02-23</title></rect>
    <rect x="408" y="144" width="13" height="13" rx="3" fill="#1b2029"><title>0 on 2026-02-24</title></rect>
    <rect x="408" y="160" width="13" height="13" rx="3" fill="#1b2029"><title>0 on 2026-02-25</title></rect>
    <rect x="408" y="176" width="13" height="13" rx="3" fill="#1b2029"><title>0 on 2026-02-26</title></rect>
    <rect x="408" y="192" width="13" height="13" rx="3" fill="#1b2029"><title>0 on 2026-02-27</title></rect>
    <rect x="408" y="208" width="13" height="13" rx="3" fill="#1b2029"><title>0 on 2026-02-28</title></rect>
    <text x="424" y="100" font-size="12" fill="#7d8590">Mar</text>
    <rect x="424" y="112" width="13" height="13" rx="3" fill="#1b2029"><title>0 on 2026-03-01</title></rect>
    <rect x="424" y="128" width="13" height="13" rx="3" fill="#1b2029"><title>0 on 2026-03-02</title></rect>
    <rect x="424" y="144" width="13" height="13" rx="3" fill="#1b2029"><title>0 on 2026-03-03</title></rect>
    <rect x="424" y="160" width="13" height="13" rx="3" fill="#1b2029"><title>0 on 2026-03-04</title></rect>
    <rect x="424" y="176" width="13" height="13" rx="3" fill="#1b2029"><title>0 on 2026-03-05</title></rect>
    <rect x="424" y="192" width="13" height="13" rx="3" fill="#1b2029"><title>0 on 2026-03-06</title></rect>
    <rect x="424" y="208" width="13" height="13" rx="3" fill="#1b2029"><title>0 on 2026-03-07</title></rect>
    <rect x="440" y="112" width="13" height="13" rx="3" fill="#1b2029"><title>0 on 2026-03-08</title></rect>
    <rect x="440" y="128" width="13" height="13" rx="3" fill="#1b2029"><title>0 on 2026-03-09</title></rect>
    <rect x="440" y="144" width="13" height="13" rx="3" fill="#1b2029"><title>0 on 2026-03-10</title></rect>
    <rect x="440" y="160" width="13" height="13" rx="3" fill="#1b2029"><title>0 on 2026-03-11</title></rect>
    <rect x="440" y="176" width="13" height="13" rx="3" fill="#1b2029"><title>0 on 2026-03-12</title></rect>
    <rect x="440" y="192" width="13" height="13" rx="3" fill="#1b2029"><title>0 on 2026-03-13</title></rect>
    <rect x="440" y="208" width="13" height="13" rx="3" fill="#1b2029"><title>0 on 2026-03-14</title></rect>
    <rect x="456" y="112" width="13" height="13" rx="3" fill="#1b2029"><title>0 on 2026-03-15</title></rect>
    <rect x="456" y="128" width="13" height="13" rx="3" fill="#1b2029"><title>0 on 2026-03-16</title></rect>
    <rect x="456" y="144" width="13" height="13" rx="3" fill="#1b2029"><title>0 on 2026-03-17</title></rect>
    <rect x="456" y="160" width="13" height="13" rx="3" fill="#1b2029"><title>0 on 2026-03-18</title></rect>
    <rect x="456" y="176" width="13" height="13" rx="3" fill="#1b2029"><title>0 on 2026-03-19</title></rect>
    <rect x="456" y="192" width="13" height="13" rx="3" fill="#1b2029"><title>0 on 2026-03-20</title></rect>
    <rect x="456" y="208" width="13" height="13" rx="3" fill="#1b2029"><title>0 on 2026-03-21</title></rect>
    <rect x="472" y="112" width="13" height="13" rx="3" fill="#1b2029"><title>0 on 2026-03-22</title></rect>
    <rect x="472" y="128" width="13" height="13" rx="3" fill="#1b2029"><title>0 on 2026-03-23</title></rect>
    <rect x="472" y="144" width="13" height="13" rx="3" fill="#1b2029"><title>0 on 2026-03-24</title></rect>
    <rect x="472" y="160" width="13" height="13" rx="3" fill="#1b2029"><title>0 on 2026-03-25</title></rect>
    <rect x="472" y="176" width="13" height="13" rx="3" fill="#1b2029"><title>0 on 2026-03-26</title></rect>
    <rect x="472" y="192" width="13" height="13" rx="3" fill="#1b2029"><title>0 on 2026-03-27</title></rect>
    <rect x="472" y="208" width="13" height="13" rx="3" fill="#1b2029"><title>0 on 2026-03-28</title></rect>
    <rect x="488" y="112" width="13" height="13" rx="3" fill="#1b2029"><title>0 on 2026-03-29</title></rect>
    <rect x="488" y="128" width="13" height="13" rx="3" fill="#1b2029"><title>0 on 2026-03-30</title></rect>
    <rect x="488" y="144" width="13" height="13" rx="3" fill="#1b2029"><title>0 on 2026-03-31</title></rect>
    <rect x="488" y="160" width="13" height="13" rx="3" fill="#1b2029"><title>0 on 2026-04-01</title></rect>
    <rect x="488" y="176" width="13" height="13" rx="3" fill="#1b2029"><title>0 on 2026-04-02</title></rect>
    <rect x="488" y="192" width="13" height="13" rx="3" fill="#1b2029"><title>0 on 2026-04-03</title></rect>
    <rect x="488" y="208" width="13" height="13" rx="3" fill="#1b2029"><title>0 on 2026-04-04</title></rect>
    <text x="504" y="100" font-size="12" fill="#7d8590">Apr</text>
    <rect x="504" y="112" width="13" height="13" rx="3" fill="#1b2029"><title>0 on 2026-04-05</title></rect>
    <rect x="504" y="128" width="13" height="13" rx="3" fill="#1b2029"><title>0 on 2026-04-06</title></rect>
    <rect x="504" y="144" width="13" height="13" rx="3" fill="#1b2029"><title>0 on 2026-04-07</title></rect>
    <rect x="504" y="160" width="13" height="13" rx="3" fill="#1b2029"><title>0 on 2026-04-08</title></rect>
    <rect x="504" y="176" width="13" height="13" rx="3" fill="#1b2029"><title>0 on 2026-04-09</title></rect>
    <rect x="504" y="192" width="13" height="13" rx="3" fill="#1b2029"><title>0 on 2026-04-10</title></rect>
    <rect x="504" y="208" width="13" height="13" rx="3" fill="#1b2029"><title>0 on 2026-04-11</title></rect>
    <rect x="520" y="112" width="13" height="13" rx="3" fill="#1b2029"><title>0 on 2026-04-12</title></rect>
    <rect x="520" y="128" width="13" height="13" rx="3" fill="#1b2029"><title>0 on 2026-04-13</title></rect>
    <rect x="520" y="144" width="13" height="13" rx="3" fill="#1b2029"><title>0 on 2026-04-14</title></rect>
    <rect x="520" y="160" width="13" height="13" rx="3" fill="#1b2029"><title>0 on 2026-04-15</title></rect>
    <rect x="520" y="176" width="13" height="13" rx="3" fill="#1b2029"><title>0 on 2026-04-16</title></rect>
    <rect x="520" y="192" width="13" height="13" rx="3" fill="#1b2029"><title>0 on 2026-04-17</title></rect>
    <rect x="520" y="208" width="13" height="13" rx="3" fill="#1b2029"><title>0 on 2026-04-18</title></rect>
    <rect x="536" y="112" width="13" height="13" rx="3" fill="#1b2029"><title>0 on 2026-04-19</title></rect>
    <rect x="536" y="128" width="13" height="13" rx="3" fill="#1b2029"><title>0 on 2026-04-20</title></rect>
    <rect x="536" y="144" width="13" height="13" rx="3" fill="#1b2029"><title>0 on 2026-04-21</title></rect>
    <rect x="536" y="160" width="13" height="13" rx="3" fill="#1b2029"><title>0 on 2026-04-22</title></rect>
    <rect x="536" y="176" width="13" height="13" rx="3" fill="#1b2029"><title>0 on 2026-04-23</title></rect>
    <rect x="536" y="192" width="13" height="13" rx="3" fill="#1b2029"><title>0 on 2026-04-24</title></rect>
    <rect x="536" y="208" width="13" height="13" rx="3" fill="#1b2029"><title>0 on 2026-04-25</title></rect>
    <rect x="552" y="112" width="13" height="13" rx="3" fill="#1b2029"><title>0 on 2026-04-26</title></rect>
    <rect x="552" y="128" width="13" height="13" rx="3" fill="#1b2029"><title>0 on 2026-04-27</title></rect>
    <rect x="552" y="144" width="13" height="13" rx="3" fill="#1b2029"><title>0 on 2026-04-28</title></rect>
    <rect x="552" y="160" width="13" height="13" rx="3" fill="#1b2029"><title>0 on 2026-04-29</title></rect>
    <rect x="552" y="176" width="13" height="13" rx="3" fill="#1b2029"><title>0 on 2026-04-30</title></rect>
    <rect x="552" y="192" width="13" height="13" rx="3" fill="#1b2029"><title>0 on 2026-05-01</title></rect>
    <rect x="552" y="208" width="13" height="13" rx="3" fill="#1b2029"><title>0 on 2026-05-02</title></rect>
    <text x="568" y="100" font-size="12" fill="#7d8590">May</text>
    <rect x="568" y="112" width="13" height="13" rx="3" fill="#1b2029"><title>0 on 2026-05-03</title></rect>
    <rect x="568" y="128" width="13" height="13" rx="3" fill="#1b2029"><title>0 on 2026-05-04</title></rect>
    <rect x="568" y="144" width="13" height="13" rx="3" fill="#1b2029"><title>0 on 2026-05-05</title></rect>
    <rect x="568" y="160" width="13" height="13" rx="3" fill="#1b2029"><title>0 on 2026-05-06</title></rect>
    <rect x="568" y="176" width="13" height="13" rx="3" fill="#1b2029"><title>0 on 2026-05-07</title></rect>
    <rect x="568" y="192" width="13" height="13" rx="3" fill="#1b2029"><title>0 on 2026-05-08</title></rect>
    <rect x="568" y="208" width="13" height="13" rx="3" fill="#1b2029"><title>0 on 2026-05-09</title></rect>
    <rect x="584" y="112" width="13" height="13" rx="3" fill="#1b2029"><title>0 on 2026-05-10</title></rect>
    <rect x="584" y="128" width="13" height="13" rx="3" fill="#1b2029"><title>0 on 2026-05-11</title></rect>
    <rect x="584" y="144" width="13" height="13" rx="3" fill="#1b2029"><title>0 on 2026-05-12</title></rect>
    <rect x="584" y="160" width="13" height="13" rx="3" fill="#1b2029"><title>0 on 2026-05-13</title></rect>
    <rect x="584" y="176" width="13" height="13" rx="3" fill="#1b2029"><title>0 on 2026-05-14</title></rect>
    <rect x="584" y="192" width="13" height="13" rx="3" fill="#1b2029"><title>0 on 2026-05-15</title></rect>
    <rect x="584" y="208" width="13" height="13" rx="3" fill="#1b2029"><title>0 on 2026-05-16</title></rect>
    <rect x="600" y="112" width="13" height="13" rx="3" fill="#1b2029"><title>0 on 2026-05-17</title></rect>
    <rect x="600" y="128" width="13" height="13" rx="3" fill="#1b2029"><title>0 on 2026-05-18</title></rect>
    <rect x="600" y="144" width="13" height="13" rx="3" fill="#1b2029"><title>0 on 2026-05-19</title></rect>
    <rect x="600" y="160" width="13" height="13" rx="3" fill="#1b2029"><title>0 on 2026-05-20</title></rect>
    <rect x="600" y="176" width="13" height="13" rx="3" fill="#1b2029"><title>0 on 2026-05-21</title></rect>
    <rect x="600" y="192" width="13" height="13" rx="3" fill="#1b2029"><title>0 on 2026-05-22</title></rect>
    <rect x="600" y="208" width="13" height="13" rx="3" fill="#1b2029"><title>0 on 2026-05-23</title></rect>
    <rect x="616" y="112" width="13" height="13" rx="3" fill="#1b2029"><title>0 on 2026-05-24</title></rect>
    <rect x="616" y="128" width="13" height="13" rx="3" fill="#1b2029"><title>0 on 2026-05-25</title></rect>
    <rect x="616" y="144" width="13" height="13" rx="3" fill="#1b2029"><title>0 on 2026-05-26</title></rect>
    <rect x="616" y="160" width="13" height="13" rx="3" fill="#1b2029"><title>0 on 2026-05-27</title></rect>
    <rect x="616" y="176" width="13" height="13" rx="3" fill="#1b2029"><title>0 on 2026-05-28</title></rect>
    <rect x="616" y="192" width="13" height="13" rx="3" fill="#1b2029"><title>0 on 2026-05-29</title></rect>
    <rect x="616" y="208" width="13" height="13" rx="3" fill="#1b2029"><title>0 on 2026-05-30</title></rect>
    <rect x="632" y="112" width="13" height="13" rx="3" fill="#1b2029"><title>0 on 2026-05-31</title></rect>
    <rect x="632" y="128" width="13" height="13" rx="3" fill="#1b2029"><title>0 on 2026-06-01</title></rect>
    <rect x="632" y="144" width="13" height="13" rx="3" fill="#1b2029"><title>0 on 2026-06-02</title></rect>
    <rect x="632" y="160" width="13" height="13" rx="3" fill="#1b2029"><title>0 on 2026-06-03</title></rect>
    <rect x="632" y="176" width="13" height="13" rx="3" fill="#1b2029"><title>0 on 2026-06-04</title></rect>
    <rect x="632" y="192" width="13" height="13" rx="3" fill="#1b2029"><title>0 on 2026-06-05</title></rect>
    <rect x="632" y="208" width="13" height="13" rx="3" fill="#1b2029"><title>0 on 2026-06-06</title></rect>
    <text x="648" y="100" font-size="12" fill="#7d8590">Jun</text>
    <rect x="648" y="112" width="13" height="13" rx="3" fill="#1b2029"><title>0 on 2026-06-07</title></rect>
    <rect x="648" y="128" width="13" height="13" rx="3" fill="#1b2029"><title>0 on 2026-06-08</title></rect>
    <rect x="648" y="144" width="13" height="13" rx="3" fill="#1b2029"><title>0 on 2026-06-09</title></rect>
    <rect x="648" y="160" width="13" height="13" rx="3" fill="#1b2029"><title>0 on 2026-06-10</title></rect>
    <rect x="648" y="176" width="13" height="13" rx="3" fill="#1b2029"><title>0 on 2026-06-11</title></rect>
    <rect x="648" y="192" width="13" height="13" rx="3" fill="#1b2029"><title>0 on 2026-06-12</title></rect>
    <rect x="648" y="208" width="13" height="13" rx="3" fill="#1b2029"><title>0 on 2026-06-13</title></rect>
    <rect x="664" y="112" width="13" height="13" rx="3" fill="#1b2029"><title>0 on 2026-06-14</title></rect>
    <rect x="664" y="128" width="13" height="13" rx="3" fill="#1b2029"><title>0 on 2026-06-15</title></rect>
    <rect x="664" y="144" width="13" height="13" rx="3" fill="#1b2029"><title>0 on 2026-06-16</title></rect>
    <rect x="664" y="160" width="13" height="13" rx="3" fill="#1b2029"><title>0 on 2026-06-17</title></rect>
    <rect x="664" y="176" width="13" height="13" rx="3" fill="#1b2029"><title>0 on 2026-06-18</title></rect>
    <rect x="664" y="192" width="13" height="13" rx="3" fill="#1b2029"><title>0 on 2026-06-19</title></rect>
    <rect x="664" y="208" width="13" height="13" rx="3" fill="#1b2029"><title>0 on 2026-06-20</title></rect>
    <rect x="680" y="112" width="13" height="13" rx="3" fill="#1b2029"><title>0 on 2026-06-21</title></rect>
    <rect x="680" y="128" width="13" height="13" rx="3" fill="#1b2029"><title>0 on 2026-06-22</title></rect>
    <rect x="680" y="144" width="13" height="13" rx="3" fill="#1b2029"><title>0 on 2026-06-23</title></rect>
    <rect x="680" y="160" width="13" height="13" rx="3" fill="#1b2029"><title>0 on 2026-06-24</title></rect>
    <rect x="680" y="176" width="13" height="13" rx="3" fill="#1b2029"><title>0 on 2026-06-25</title></rect>
    <rect x="680" y="192" width="13" height="13" rx="3" fill="#1b2029"><title>0 on 2026-06-26</title></rect>
    <rect x="680" y="208" width="13" height="13" rx="3" fill="#1b2029"><title>0 on 2026-06-27</title></rect>
    <rect x="696" y="112" width="13" height="13" rx="3" fill="#1b2029"><title>0 on 2026-06-28</title></rect>
    <rect x="696" y="128" width="13" height="13" rx="3" fill="#1b2029"><title>0 on 2026-06-29</title></rect>
    <rect x="696" y="144" width="13" height="13" rx="3" fill="#1b2029"><title>0 on 2026-06-30</title></rect>
    <rect x="696" y="160" width="13" height="13" rx="3" fill="#1b2029"><title>0 on 2026-07-01</title></rect>
    <rect x="696" y="176" width="13" height="13" rx="3" fill="#1b2029"><title>0 on 2026-07-02</title></rect>
    <rect x="696" y="192" width="13" height="13" rx="3" fill="#1b2029"><title>0 on 2026-07-03</title></rect>
    <rect x="696" y="208" width="13" height="13" rx="3" fill="#1b2029"><title>0 on 2026-07-04</title></rect>
    <text x="712" y="100" font-size="12" fill="#7d8590">Jul</text>
    <rect x="712" y="112" width="13" height="13" rx="3" fill="#1b2029"><title>0 on 2026-07-05</title></rect>
    <rect x="712" y="128" width="13" height="13" rx="3" fill="#1b2029"><title>0 on 2026-07-06</title></rect>
    <rect x="712" y="144" width="13" height="13" rx="3" fill="#1b2029"><title>0 on 2026-07-07</title></rect>
    <rect x="712" y="160" width="13" height="13" rx="3" fill="#1b2029"><title>0 on 2026-07-08</title></rect>
    <rect x="712" y="176" width="13" height="13" rx="3" fill="#1b2029"><title>0 on 2026-07-09</title></rect>
    <rect x="712" y="192" width="13" height="13" rx="3" fill="#1b2029"><title>0 on 2026-07-10</title></rect>
    <rect x="712" y="208" width="13" height="13" rx="3" fill="#1b2029"><title>0 on 2026-07-11</title></rect>
    <rect x="728" y="112" width="13" height="13" rx="3" fill="#1b2029"><title>0 on 2026-07-12</title></rect>
    <rect x="728" y="128" width="13" height="13" rx="3" fill="#1b2029"><title>0 on 2026-07-13</title></rect>
    <rect x="728" y="144" width="13" height="13" rx="3" fill="#1b2029"><title>0 on 2026-07-14</title></rect>
    <rect x="728" y="160" width="13" height="13" rx="3" fill="#1b2029"><title>0 on 2026-07-15</title></rect>
    <rect x="728" y="176" width="13" height="13" rx="3" fill="#1b2029"><title>0 on 2026-07-16</title></rect>
    <rect x="728" y="192" width="13" height="13" rx="3" fill="#1b2029"><title>0 on 2026-07-17</title></rect>
    <rect x="728" y="208" width="13" height="13" rx="3" fill="#1b2029"><title>0 on 2026-07-18</title></rect>
    <rect x="744" y="112" width="13" height="13" rx="3" fill="#1b2029"><title>0 on 2026-07-19</title></rect>
    <rect x="744" y="128" width="13" height="13" rx="3" fill="#1b2029"><title>0 on 2026-07-20</title></rect>
    <rect x="744" y="144" width="13" height="13" rx="3" fill="#1b2029"><title>0 on 2026-07-21</title></rect>
    <rect x="744" y="160" width="13" height="13" rx="3" fill="#1b2029"><title>0 on 2026-07-22</title></rect>
    <rect x="744" y="176" width="13" height="13" rx="3" fill="#1b2029"><title>0 on 2026-07-23</title></rect>
    <rect x="744" y="192" width="13" height="13" rx="3" fill="#1b2029"><title>0 on 2026-07-24</title></rect>
    <rect x="744" y="208" width="13" height="13" rx="3" fill="#1b2029"><title>0 on 2026-07-25</title></rect>
    <rect x="760" y="112" width="13" height="13" rx="3" fill="#1b2029"><title>0 on 2026-07-26</title></rect>
    <rect x="760" y="128" width="13" height="13" rx="3" fill="#1b2029"><title>0 on 2026-07-27</title></rect>
    <rect x="760" y="144" width="13" height="13" rx="3" fill="#1b2029"><title>0 on 2026-07-28</title></rect>
    <rect x="760" y="160" width="13" height="13" rx="3" fill="#1b2029"><title>0 on 2026-07-29</title></rect>
    <rect x="760" y="176" width="13" height="13" rx="3" fill="#1b2029"><title>0 on 2026-07-30</title></rect>
    <rect x="760" y="192" width="13" height="13" rx="3" fill="#1b2029"><title>0 on 2026-07-31</title></rect>
    <rect x="760" y="208" width="13" height="13" rx="3" fill="#1b2029"><title>0 on 2026-08-01</title></rect>
    <text x="776" y="100" font-size="12" fill="#7d8590">Aug</text>
    <rect x="776" y="112" width="13" height="13" rx="3" fill="#1b2029"><title>0 on 2026-08-02</title></rect>
    <rect x="776" y="128" width="13" height="13" rx="3" fill="#1b2029"><title>0 on 2026-08-03</title></rect>
    <rect x="776" y="144" width="13" height="13" rx="3" fill="#1b2029"><title>0 on 2026-08-04</title></rect>
    <rect x="776" y="160" width="13" height="13" rx="3" fill="#1b2029"><title>0 on 2026-08-05</title></rect>
    <rect x="776" y="176" width="13" height="13" rx="3" fill="#1b2029"><title>0 on 2026-08-06</title></rect>
    <rect x="776" y="192" width="13" height="13" rx="3" fill="#1b2029"><title>0 on 2026-08-07</title></rect>
    <rect x="776" y="208" width="13" height="13" rx="3" fill="#1b2029"><title>0 on 2026-08-08</title></rect>
    <rect x="792" y="112" width="13" height="13" rx="3" fill="#1b2029"><title>0 on 2026-08-09</title></rect>
    <rect x="792" y="128" width="13" height="13" rx="3" fill="#1b2029"><title>0 on 2026-08-10</title></rect>
    <rect x="792" y="144" width="13" height="13" rx="3" fill="#1b2029"><title>0 on 2026-08-11</title></rect>
    <rect x="792" y="160" width="13" height="13" rx="3" fill="#1b2029"><title>0 on 2026-08-12</title></rect>
    <rect x="792" y="176" width="13" height="13" rx="3" fill="#1b2029"><title>0 on 2026-08-13</title></rect>
    <rect x="792" y="192" width="13" height="13" rx="3" fill="#1b2029"><title>0 on 2026-08-14</title></rect>
    <rect x="792" y="208" width="13" height="13" rx="3" fill="#1b2029"><title>0 on 2026-08-15</title></rect>
    <rect x="808" y="112" width="13" height="13" rx="3" fill="#1b2029"><title>0 on 2026-08-16</title></rect>
    <rect x="808" y="128" width="13" height="13" rx="3" fill="#1b2029"><title>0 on 2026-08-17</title></rect>
    <rect x="808" y="144" width="13" height="13" rx="3" fill="#1b2029"><title>0 on 2026-08-18</title></rect>
    <rect x="808" y="160" width="13" height="13" rx="3" fill="#1b2029"><title>0 on 2026-08-19</title></rect>
    <rect x="808" y="176" width="13" height="13" rx="3" fill="#ef4b53"><title>16 on 2026-08-20</title></rect>
    <rect x="808" y="192" width="13" height="13" rx="3" fill="#1b2029"><title>0 on 2026-08-21</title></rect>
    <rect x="808" y="208" width="13" height="13" rx="3" fill="#1b2029"><title>0 on 2026-08-22</title></rect>
    <rect x="824" y="112" width="13" height="13" rx="3" fill="#1b2029"><title>0 on 2026-08-23</title></rect>
    <rect x="824" y="128" width="13" height="13" rx="3" fill="#1b2029"><title>0 on 2026-08-24</title></rect>
    <rect x="824" y="144" width="13" height="13" rx="3" fill="#1b2029"><title>0 on 2026-08-25</title></rect>
    <rect x="824" y="160" width="13" height="13" rx="3" fill="#1b2029"><title>0 on 2026-08-26</title></rect>
    <rect x="824" y="176" width="13" height="13" rx="3" fill="#1b2029"><title>0 on 2026-08-27</title></rect>
    <rect x="824" y="192" width="13" height="13" rx="3" fill="#1b2029"><title>0 on 2026-08-28</title></rect>
    <rect x="824" y="208" width="13" height="13" rx="3" fill="#1b2029"><title>0 on 2026-08-29</title></rect>
    <rect x="840" y="112" width="13" height="13" rx="3" fill="#1b2029"><title>0 on 2026-08-30</title></rect>
    <rect x="840" y="128" width="13" height="13" rx="3" fill="#1b2029"><title>0 on 2026-08-31</title></rect>
    <rect x="840" y="144" width="13" height="13" rx="3" fill="#1b2029"><title>0 on 2026-09-01</title></rect>
    <rect x="840" y="160" width="13" height="13" rx="3" fill="#1b2029"><title>0 on 2026-09-02</title></rect>
    <rect x="840" y="176" width="13" height="13" rx="3" fill="#1b2029"><title>0 on 2026-09-03</title></rect>
    <rect x="840" y="192" width="13" height="13" rx="3" fill="#1b2029"><title>0 on 2026-09-04</title></rect>
    <rect x="840" y="208" width="13" height="13" rx="3" fill="#1b2029"><title>0 on 2026-09-05</title></rect>
    <text x="856" y="100" font-size="12" fill="#7d8590">Sep</text>
    <rect x="856" y="112" width="13" height="13" rx="3" fill="#1b2029"><title>0 on 2026-09-06</title></rect>
    <rect x="856" y="128" width="13" height="13" rx="3" fill="#1b2029"><title>0 on 2026-09-07</title></rect>
    <rect x="856" y="144" width="13" height="13" rx="3" fill="#1b2029"><title>0 on 2026-09-08</title></rect>
    <rect x="856" y="160" width="13" height="13" rx="3" fill="#1b2029"><title>0 on 2026-09-09</title></rect>
    <rect x="856" y="176" width="13" height="13" rx="3" fill="#1b2029"><title>0 on 2026-09-10</title></rect>
    <rect x="856" y="192" width="13" height="13" rx="3" fill="#1b2029"><title>0 on 2026-09-11</title></rect>
    <rect x="856" y="208" width="13" height="13" rx="3" fill="#1b2029"><title>0 on 2026-09-12</title></rect>
    <rect x="872" y="112" width="13" height="13" rx="3" fill="#1b2029"><title>0 on 2026-09-13</title></rect>
    <rect x="872" y="128" width="13" height="13" rx="3" fill="#1b2029"><title>0 on 2026-09-14</title></rect>
    <rect x="872" y="144" width="13" height="13" rx="3" fill="#1b2029"><title>0 on 2026-09-15</title></rect>
    <rect x="872" y="160" width="13" height="13" rx="3" fill="#1b2029"><title>0 on 2026-09-16</title></rect>
    <rect x="872" y="176" width="13" height="13" rx="3" fill="#1b2029"><title>0 on 2026-09-17</title></rect>
    <rect x="872" y="192" width="13" height="13" rx="3" fill="#1b2029"><title>0 on 2026-09-18</title></rect>
    <rect x="872" y="208" width="13" height="13" rx="3" fill="#1b2029"><title>0 on 2026-09-19</title></rect>
    <rect x="888" y="112" width="13" height="13" rx="3" fill="#1b2029"><title>0 on 2026-09-20</title></rect>
    <rect x="888" y="128" width="13" height="13" rx="3" fill="#1b2029"><title>0 on 2026-09-21</title></rect>
    <rect x="888" y="144" width="13" height="13" rx="3" fill="#1b2029"><title>0 on 2026-09-22</title></rect>
    <rect x="888" y="160" width="13" height="13" rx="3" fill="#1b2029"><title>0 on 2026-09-23</title></rect>
    <rect x="888" y="176" width="13" height="13" rx="3" fill="#1b2029"><title>0 on 2026-09-24</title></rect>
    <rect x="888" y="192" width="13" height="13" rx="3" fill="#1b2029"><title>0 on 2026-09-25</title></rect>
    <rect x="888" y="208" width="13" height="13" rx="3" fill="#1b2029"><title>0 on 2026-09-26</title></rect>
    <rect x="904" y="112" width="13" height="13" rx="3" fill="#1b2029"><title>0 on 2026-09-27</title></rect>
    <rect x="904" y="128" width="13" height="13" rx="3" fill="#1b2029"><title>0 on 2026-09-28</title></rect>
    <rect x="904" y="144" width="13" height="13" rx="3" fill="#b3242f"><title>8 on 2026-09-29</title></rect>
    <text x="58" y="139" font-size="12" text-anchor="end" fill="#7d8590">Mon</text>
    <text x="58" y="171" font-size="12" text-anchor="end" fill="#7d8590">Wed</text>
    <text x="58" y="203" font-size="12" text-anchor="end" fill="#7d8590">Fri</text>
    <text x="32" y="264" font-size="14"><tspan fill="#e6edf3" font-weight="700">72</tspan><tspan fill="#7d8590"> contributions</tspan></text>
    <text x="206" y="264" font-size="14"><tspan fill="#e6edf3" font-weight="700">13</tspan><tspan fill="#7d8590"> active days</tspan></text>
    <text x="362" y="264" font-size="14"><tspan fill="#e6edf3" font-weight="700">2</tspan><tspan fill="#7d8590"> day best streak</tspan></text>
    <text x="545" y="264" font-size="14"><tspan fill="#e6edf3" font-weight="700">17</tspan><tspan fill="#7d8590"> on busiest day</tspan></text>
    <text x="786" y="264" font-size="12" text-anchor="end" fill="#7d8590">less</text>
    <rect x="796" y="253" width="12" height="12" rx="3" fill="#1b2029"/>
    <rect x="812" y="253" width="12" height="12" rx="3" fill="#4a1a20"/>
    <rect x="828" y="253" width="12" height="12" rx="3" fill="#7c1f29"/>
    <rect x="844" y="253" width="12" height="12" rx="3" fill="#b3242f"/>
    <rect x="860" y="253" width="12" height="12" rx="3" fill="#ef4b53"/>
    <text x="882" y="264" font-size="12" fill="#7d8590">more</text>
  </g>
</svg>
